<?xml version="1.0" encoding="UTF-8"?>
<svg width="16px" height="16px" viewBox="0 0 16 16" version="1.1" xmlns="http://www.w3.org/2000/svg" xmlns:xlink="http://www.w3.org/1999/xlink">
    <!-- Generator: Sketch 49.2 (51160) - http://www.bohemiancoding.com/sketch -->
    <title>search</title>
    <desc>Created with Sketch.</desc>
    <defs></defs>
    <g id="search" stroke="none" stroke-width="1" fill="none" fill-rule="evenodd">
        <path d="M10.2800602,8.17808156 L16,14.0944039 L14.0499754,16 L8.40672811,10.1630032 C6.92340815,11.0997355 5.05429495,11.281627 3.3889225,10.5905029 C1.33774984,9.73927289 8.59646472e-06,7.73149777 3.29014885e-06,5.50417719 C-0.0015880839,4.04597787 0.574163717,2.64686834 1.60059968,1.61463718 C2.62703565,0.582406021 4.02007536,0.00160836419 5.47326553,1.32514649e-05 C7.69292961,-0.00485698305 9.69673118,1.33309726 10.549525,3.38947207 C11.2041255,4.96793569 11.0814949,6.73084067 10.2800602,8.17808156 Z M9.00546209,5.50206082 C9.0142647,3.57539719 7.46724839,2.00513488 5.54722854,1.99186266 C3.61830747,1.98741829 2.04979524,3.55056921 2.04098238,5.48612417 C2.04102794,7.41280805 3.59523914,8.97590006 5.51529956,8.98029369 C7.43535998,8.98468731 8.99665949,7.42872446 9.00546209,5.50206082 Z" id="loupe" fill="#999999"></path>
    </g>
</svg>