<?xml version="1.0" encoding="UTF-8"?>
<svg width="16px" height="16px" viewBox="0 0 16 16" version="1.1" xmlns="http://www.w3.org/2000/svg" xmlns:xlink="http://www.w3.org/1999/xlink">
    <!-- Generator: Sketch 49.2 (51160) - http://www.bohemiancoding.com/sketch -->
    <title>speaker</title>
    <desc>Created with Sketch.</desc>
    <defs></defs>
    <g id="speaker" stroke="none" stroke-width="1" fill="none" fill-rule="evenodd">
        <path d="M2.99846777,4.81341935 L2.99846777,4.7483871 L6.9964248,1.6516129 L6.9964248,14.1037419 L2.99846777,11.072 L2.99846777,11.0069677 L0.999489257,11.0069677 C0.447486583,11.0069677 0,10.5448101 0,9.97470968 L0,5.84567742 C0,5.27557703 0.447486583,4.81341935 0.999489257,4.81341935 L2.99846777,4.81341935 Z M10.0818481,16 C13.5529519,15.0144184 15.969049,11.7692534 15.9997051,8.05146934 C16.0303612,4.33368528 13.6681284,1.04649326 10.2137807,0 L9.78499982,0.879483871 C12.8585012,1.73679167 14.991924,4.61836072 14.9874763,7.90635887 C14.9830286,11.194357 12.8418183,14.0697584 9.76600953,14.9181935 C9.18830474,15.0843871 10.0818481,16 10.0818481,16 Z M8.9684171,12.9940645 C11.293866,12.5267764 12.9853928,10.4424136 13.0244896,7.99601979 C13.0635864,5.54962601 11.4395848,3.40874502 9.13033436,2.86245161 L8.76452129,3.81832258 C10.6870418,4.18799582 12.0751254,5.92979997 12.0566567,7.94938131 C12.038188,9.96896265 10.6184977,11.6833789 8.6895596,12.0154839 L8.9684171,12.9940645 Z M8.00608549,9.37382195 L8.01190588,8.97445161 C8.56006872,8.95668383 8.99553241,8.49260696 8.99553241,7.92619355 C8.99553241,7.35978014 8.56006872,6.89570327 8.01190588,6.87793548 L8.01188686,6.87666999 L8.48533908,5.88556513 C9.3665285,6.12922701 10.0124661,6.95947291 10.0124661,7.94270968 C10.0124661,8.98219256 9.29051294,9.85068022 8.33188097,10.0358305 L8.00608549,9.37382195 Z" id="volume_icon_loud" fill="#999999"></path>
    </g>
</svg>