<?xml version="1.0" encoding="UTF-8"?>
<svg width="16px" height="16px" viewBox="0 0 16 16" version="1.1" xmlns="http://www.w3.org/2000/svg" xmlns:xlink="http://www.w3.org/1999/xlink">
    <!-- Generator: Sketch 49.2 (51160) - http://www.bohemiancoding.com/sketch -->
    <title>speaker</title>
    <desc>Created with Sketch.</desc>
    <defs></defs>
    <g id="speaker" stroke="none" stroke-width="1" fill="none" fill-rule="evenodd">
        <path d="M3.6236593,5.21174194 L3.6236593,5.15483871 L7.1218717,2.44516129 L7.1218717,13.3407742 L3.6236593,10.688 L3.6236593,10.6310968 L1.8745531,10.6310968 C1.39155076,10.6310968 1,10.2267088 1,9.72787097 L1,6.11496774 C1,5.6161299 1.39155076,5.21174194 1.8745531,5.21174194 L3.6236593,5.21174194 Z M9.82161711,15 C12.8588329,14.1376161 14.9729179,11.2980967 14.999742,8.04503567 C15.026566,4.79197462 12.9596124,1.9156816 9.93705812,1 L9.56187484,1.76954839 C12.2511886,2.51969271 14.1179335,5.04106563 14.1140417,7.91806401 C14.11015,10.7950624 12.236591,13.3110386 9.54525834,14.0534194 C9.03976664,14.1988387 9.82161711,15 9.82161711,15 Z M8.84736496,12.3698065 C10.8821327,11.9609294 12.3622187,10.1371119 12.3964284,7.99651731 C12.4306381,5.85592275 11.0096367,3.98265189 8.98904256,3.50464516 L8.66895613,4.34103226 C10.3511616,4.66449635 11.5657348,6.18857497 11.5495746,7.95570865 C11.5334145,9.72284232 10.2911855,11.2229566 8.60336465,11.5135484 L8.84736496,12.3698065 Z M8.0053248,9.20209421 L8.01041765,8.85264516 C8.49006013,8.83709835 8.87109086,8.43103109 8.87109086,7.93541935 C8.87109086,7.43980762 8.49006013,7.03374036 8.01041765,7.01819355 L8.01040101,7.01708624 L8.42467169,6.14986949 C9.19571244,6.36307363 9.76090782,7.08953879 9.76090782,7.94987097 C9.76090782,8.85941849 9.12919882,9.61934519 8.29039585,9.78135167 L8.0053248,9.20209421 Z" id="volume_icon_loud" fill="#999999"></path>
    </g>
</svg>