<?xml version="1.0" encoding="UTF-8"?>
<svg width="16px" height="16px" viewBox="0 0 16 16" version="1.1" xmlns="http://www.w3.org/2000/svg" xmlns:xlink="http://www.w3.org/1999/xlink">
    <!-- Generator: Sketch 49.2 (51160) - http://www.bohemiancoding.com/sketch -->
    <title>tags</title>
    <desc>Created with Sketch.</desc>
    <defs></defs>
    <g id="tags" stroke="none" stroke-width="1" fill="none" fill-rule="evenodd">
        <path d="M7.74220354,0.768203874 C7.78879277,0.710266095 7.83871469,0.654629267 7.89184482,0.601593547 C8.27771435,0.216409721 8.80117874,-6.47947189e-08 9.34701376,0 L13.9415787,0 C15.0784134,0 16,0.919500392 16,2.05376161 L16,6.67397421 C16,7.21866566 15.7831312,7.74104796 15.3971024,8.12620297 C15.3705793,8.15266601 15.3434069,8.17833231 15.3156226,8.20318641 C15.2256799,8.34117178 15.1209292,8.47045436 15.0024033,8.58854866 L8.27113486,15.3045794 C7.34151855,16.2318069 5.83461512,16.2318069 4.90499882,15.3045794 L0.697830569,11.106935 C0.251050393,10.6617815 -2.84217094e-14,10.0576544 -2.84217094e-14,9.427677 C-2.84217094e-14,8.79769964 0.251050393,8.1935725 0.697830569,7.74841897 L7.42909904,1.03138686 C7.52746014,0.933278526 7.6322842,0.845550863 7.74220354,0.768203874 Z M12.6077699,5.55146482 C12.0088776,6.14895617 11.0379219,6.14893176 10.4390599,5.5514103 C9.84019779,4.95388883 9.84019779,3.98513109 10.4390599,3.38760963 C11.0379219,2.79008816 12.0088776,2.79006375 12.6077699,3.3875551 C12.8953874,3.67449985 13.0569711,4.06369347 13.0569711,4.46950996 C13.0569711,4.87532646 12.8953874,5.26452007 12.6077699,5.55146482 Z" id="tag" fill="#999999" transform="translate(8.000000, 8.000000) scale(-1, 1) translate(-8.000000, -8.000000) "></path>
    </g>
</svg>