<?xml version="1.0" encoding="UTF-8"?>
<svg width="16px" height="16px" viewBox="0 0 16 16" version="1.1" xmlns="http://www.w3.org/2000/svg" xmlns:xlink="http://www.w3.org/1999/xlink">
    <!-- Generator: Sketch 49.2 (51160) - http://www.bohemiancoding.com/sketch -->
    <title>tags</title>
    <desc>Created with Sketch.</desc>
    <defs></defs>
    <g id="tags" stroke="none" stroke-width="1" fill="none" fill-rule="evenodd">
        <path d="M7.7744281,1.67217839 C7.81519367,1.62148283 7.85887535,1.57280061 7.90536422,1.52639435 C8.24300005,1.18935851 8.70103139,0.999999943 9.17863704,1 L13.1988814,1 C14.1936117,1 15,1.80456284 15,2.79704141 L15,6.83972744 C15,7.31633245 14.8102398,7.77341696 14.4724646,8.1104276 C14.4492569,8.13358276 14.4254811,8.15604077 14.4011698,8.17778811 C14.3224699,8.29852531 14.230813,8.41164757 14.1271029,8.51498008 L8.237243,14.391507 C7.42382873,15.202831 6.10528823,15.202831 5.29187396,14.391507 L1.61060175,10.7185682 C1.21966909,10.3290588 1,9.80044757 1,9.24921738 C1,8.69798719 1.21966909,8.16937594 1.61060175,7.7798666 L7.50046166,1.9024635 C7.58652762,1.81661871 7.67824867,1.73985701 7.7744281,1.67217839 Z M12.0317986,5.85753172 C11.5077679,6.38033665 10.6581817,6.38031529 10.1341774,5.85748401 C9.61017307,5.33465273 9.61017307,4.48698971 10.1341774,3.96415842 C10.6581817,3.44132714 11.5077679,3.44130578 12.0317986,3.96411072 C12.283464,4.21518737 12.4248497,4.55573179 12.4248497,4.91082122 C12.4248497,5.26591065 12.283464,5.60645506 12.0317986,5.85753172 Z" id="tag" fill="#999999" transform="translate(8.000000, 8.000000) scale(-1, 1) translate(-8.000000, -8.000000) "></path>
    </g>
</svg>